<svg width="1200" height="300" viewBox="0 0 1200 300" fill="none" xmlns="http://www.w3.org/2000/svg">
  <defs>
    <linearGradient id="bg" x1="0" y1="0" x2="1200" y2="300" gradientUnits="userSpaceOnUse">
      <stop stop-color="#0B1220"/>
      <stop offset="1" stop-color="#16233B"/>
    </linearGradient>
    <linearGradient id="accent" x1="120" y1="52" x2="1080" y2="252" gradientUnits="userSpaceOnUse">
      <stop stop-color="#FF6B6B"/>
      <stop offset="1" stop-color="#4ECDC4"/>
    </linearGradient>
  </defs>
  <rect width="1200" height="300" rx="28" fill="url(#bg)"/>
  <circle cx="1050" cy="70" r="120" fill="#1E2C4A" opacity="0.65"/>
  <circle cx="1090" cy="230" r="70" fill="#243B63" opacity="0.55"/>
  <circle cx="140" cy="220" r="96" fill="#243B63" opacity="0.55"/>
  <path d="M80 58H104C116.15 58 126 67.8497 126 80V104C126 116.15 116.15 126 104 126H80C67.8497 126 58 116.15 58 104V80C58 67.8497 67.8497 58 80 58Z" fill="url(#accent)"/>
  <path d="M77 82H107V88H77V82ZM77 95H96V101H77V95Z" fill="white"/>
  <text x="170" y="120" fill="white" font-family="Segoe UI, Arial, sans-serif" font-size="64" font-weight="700">ecomClient</text>
  <text x="170" y="168" fill="#B8C4D9" font-family="Segoe UI, Arial, sans-serif" font-size="26" font-weight="400">Angular frontend for the e-commerce platform</text>
  <text x="170" y="212" fill="#7F8AA3" font-family="Segoe UI, Arial, sans-serif" font-size="20" font-weight="400">Customer experience, admin dashboard, and real-time UI flows</text>
</svg>
